# xmcd
#
# Track frame offsets:
#	150
#	22088
#	39669
#	58196
#	76062
#	96047
#	117216
#	134960
#	156304
#	179617
#	202521
#	217691
#	233293
#	250700
#	268640
#	284735
#	304068
#	320014
#	337757
#
# Disc length: 4784 seconds
#
# Revision: 1
# Processed by: cddbd v1.5.2PL0 Copyright (c) Steve Scherf et al.
# Submitted via: audiograbber 1.83.01
#
DISCID=0912ae13
DTITLE=Various Artist - Ultimate R&B Volume 2 [CD 2 of 2) (2007)
DYEAR=2007
DGENRE=R&B
TTITLE0=Akon - Don't Matter
TTITLE1=Timbaland feat Justin Timberlake and Nelly Furtado - Give It To Me
TTITLE2=Gwen Stefani feat Akon - The Sweet Escape
TTITLE3=50 Cent - Just A 'Lil Bit
TTITLE4=Mary J Blige - Family Affair
TTITLE5=Eve - Who's That Girl
TTITLE6=Mattafix - Big City Life
TTITLE7=Bobby Valentino feat Timbaland - Anonymous
TTITLE8=Blackstreet - Don't Leave Me
TTITLE9=DMX - Slippin'
TTITLE10=Jamelia - Something About You
TTITLE11=Jibbs - Chain Hang Low
TTITLE12=Sisqo feat Beanie Sigel - Unleash The Dragon
TTITLE13=Ja Rule feat Ashanti - Always On Time
TTITLE14=LL Cool J feat 7 Aurelius - Hush
TTITLE15=The Game feat Junior Reid - It's Ok (One Blood)
TTITLE16=Ken Hell - Truck
TTITLE17=Tyree feat Majic Massey - Would You Mind
TTITLE18=Snoop Dogg feat B-Real - Vato
EXTD=
EXTT0=
EXTT1=
EXTT2=
EXTT3=
EXTT4=
EXTT5=
EXTT6=
EXTT7=
EXTT8=
EXTT9=
EXTT10=
EXTT11=
EXTT12=
EXTT13=
EXTT14=
EXTT15=
EXTT16=
EXTT17=
EXTT18=
PLAYORDER=
